<?xml version="1.0" standalone="no"?>
<!DOCTYPE svg PUBLIC "-//W3C//DTD SVG 20010904//EN"
 "http://www.w3.org/TR/2001/REC-SVG-20010904/DTD/svg10.dtd">
<svg version="1.0" xmlns="http://www.w3.org/2000/svg"
 width="192.000000pt" height="192.000000pt" viewBox="0 0 192.000000 192.000000"
 preserveAspectRatio="xMidYMid meet">
<metadata>
Created by potrace 1.11, written by Peter Selinger 2001-2013
</metadata>
<g transform="translate(0.000000,192.000000) scale(0.100000,-0.100000)"
fill="#000000" stroke="none">
<path d="M720 1721 l0 -120 -149 -3 c-163 -3 -178 -8 -225 -72 -19 -25 -21
-44 -24 -241 l-3 -214 -64 -21 c-74 -25 -100 -55 -91 -104 3 -17 39 -147 78
-288 l73 -258 28 0 c67 0 182 53 257 119 19 17 38 31 41 31 3 0 25 -18 50 -40
95 -85 227 -125 336 -102 74 15 153 56 204 104 22 21 44 38 48 38 5 0 26 -16
47 -36 55 -49 113 -81 180 -99 98 -25 96 -27 123 72 13 49 30 108 37 133 69
232 94 335 89 361 -8 34 -33 53 -90 68 -22 6 -45 14 -52 19 -8 5 -12 71 -15
219 -3 231 -5 237 -69 286 -33 24 -42 25 -196 26 l-133 1 0 120 0 120 -240 0
-240 0 0 -119z m720 -441 l0 -160 -37 14 c-21 8 -129 44 -241 81 l-203 66
-232 -77 c-128 -42 -235 -79 -239 -81 -5 -2 -8 68 -8 156 l0 161 480 0 480 0
0 -160z"/>
<path d="M565 304 c-80 -44 -171 -64 -299 -64 l-106 0 0 -80 0 -80 113 0 c124
0 214 16 306 53 l61 25 60 -25 c150 -60 331 -65 477 -13 48 18 95 32 103 32 8
0 45 -12 82 -26 94 -36 106 -38 261 -43 l137 -5 0 81 0 81 -102 0 c-131 0
-220 19 -307 65 l-70 37 -73 -36 c-166 -82 -349 -80 -507 5 -30 16 -59 28 -65
28 -6 -1 -38 -16 -71 -35z"/>
</g>
</svg>
